HIERARCHY
ROOT ui
{
	 OFFSET 0 0 0
	 CHANNELS 3 XPosition YPosition Z Position
	 EndSite
	 {
	 OFFSET 0 -1 0
	 }
}
ROOT li
{
	 OFFSET 0 0 0
	 CHANNELS 3 XPosition YPosition Z Position
	 EndSite
	 {
	 OFFSET 0 -1 0
	 }
}
ROOT ul
{
	 OFFSET 0 0 0
	 CHANNELS 3 XPosition YPosition Z Position
	 EndSite
	 {
	 OFFSET 0 -1 0
	 }
}
ROOT ll
{
	 OFFSET 0 0 0
	 CHANNELS 3 XPosition YPosition Z Position
	 EndSite
	 {
	 OFFSET 0 -1 0
	 }
}
ROOT tt
{
	 OFFSET 0 0 0
	 CHANNELS 3 XPosition YPosition Z Position
	 EndSite
	 {
	 OFFSET 0 -1 0
	 }
}
ROOT tb
{
	 OFFSET 0 0 0
	 CHANNELS 3 XPosition YPosition Z Position
	 EndSite
	 {
	 OFFSET 0 -1 0
	 }
}
ROOT td
{
	 OFFSET 0 0 0
	 CHANNELS 3 XPosition YPosition Z Position
	 EndSite
	 {
	 OFFSET 0 -1 0
	 }
}
ROOT v
{
	 OFFSET 0 0 0
	 CHANNELS 3 XPosition YPosition Z Position
	 EndSite
	 {
	 OFFSET 0 -1 0
	 }
}
ROOT bn
{
	 OFFSET 0 0 0
	 CHANNELS 3 XPosition YPosition Z Position
	 EndSite
	 {
	 OFFSET 0 -1 0
	 }
}
MOTION
Frames: 13
Frame Time: 0.002
0.025611278533935546	0.0031134099960327148	0		0.568081787109375	-2.381362060546875	0		-0.9471776733398437	0.23173463439941405	0		-0.6429063110351563	-2.4754033203125	0		1.7467752685546876	-0.4949140625	0		3.2944638671875	-0.12918565368652343	0		4.52503515625	0.4286849060058594	0		6.00431640625	0.5510772094726563	0		-0.18910975646972655	5.9035224609375	0		
-0.004245522975921631	2.511659860610962E-4	0		0.5553370361328125	-2.377382080078125	0		-0.9570001831054687	0.2326571044921875	0		-0.6216806030273437	-2.474781005859375	0		1.7359366455078125	-0.49693209838867186	0		3.24647216796875	-0.14580966186523436	0		4.5080712890625	0.41577764892578123	0		5.99647802734375	0.5511077880859375	0		-0.24017256164550782	5.89086376953125	0		
-0.004053659915924072	8.578699827194214E-5	0		0.5286004638671875	-2.37527001953125	0		-0.9518627319335937	0.2274224853515625	0		-0.699087890625	-2.439193603515625	0		1.69615087890625	-0.49566690063476565	0		3.2526865234375	-0.1439649658203125	0		4.51710595703125	0.4006205139160156	0		5.98865869140625	0.5511488647460937	0		-0.255213623046875	5.879841796875	0		
-0.00687736177444458	-0.0030566649436950684	0		0.5558414916992187	-2.3776943359375	0		-0.9566132202148437	0.23227679443359375	0		-0.6680614624023438	-2.463685302734375	0		1.6794180908203125	-0.4906319580078125	0		3.2488369140625	-0.15002017211914062	0		4.5091748046875	0.3876348876953125	0		5.9927724609375	0.5430801391601563	0		-0.27409756469726565	5.88485009765625	0		
-0.0036347439289093017	-2.6488500833511355E-4	0		0.50418701171875	-2.370349853515625	0		-0.9364263916015625	0.22987794494628908	0		-0.6657653198242187	-2.461900634765625	0		1.6826829833984376	-0.4867968444824219	0		3.230211669921875	-0.13392987060546874	0		4.48336962890625	0.38682696533203126	0		6.0021181640625	0.5579669799804687	0		-0.25508551025390624	5.879478515625	0		
-0.0034184861183166504	-4.4971999526023865E-4	0		0.5515245971679688	-2.36497998046875	0		-0.9430892333984375	0.2427352600097656	0		-0.6962457885742187	-2.43780224609375	0		1.65103125	-0.4746236267089844	0		3.2302265625	-0.15502505493164062	0		4.47951708984375	0.3808044738769531	0		6.00639697265625	0.5659073486328124	0		-0.24091395568847657	5.8911494140625	0		
-0.003202958106994629	-6.401299834251404E-4	0		0.5317216186523438	-2.373959228515625	0		-0.9378419799804687	0.24646890258789061	0		-0.6979793701171875	-2.4399931640625	0		1.6651820068359375	-0.4829022216796875	0		3.2315341796875	-0.14613238525390626	0		4.4685859375	0.36685107421875	0		6.011673828125	0.5738411865234375	0		-0.2219178924560547	5.885767578125	0		
-0.0029909279346466066	-8.353210091590882E-4	0		0.5411400756835938	-2.360226318359375	0		-0.9426759643554687	0.24229444885253906	0		-0.6997136840820313	-2.442189453125	0		1.64238037109375	-0.48582418823242185	0		3.22356640625	-0.16515228271484375	0		4.460525390625	0.3398685302734375	0		6.003869140625	0.573903564453125	0		-0.24280332946777344	5.89376904296875	0		
-0.0027843620777130125	-0.0010343430042266846	0		0.4963917541503906	-2.362973388671875	0		-0.9324772338867188	0.24197003173828124	0		-0.7014518432617187	-2.444390380859375	0		1.6565140380859376	-0.4951080017089844	0		3.193866455078125	-0.15596308898925781	0		4.44265478515625	0.3329801635742187	0		6.00798046875	0.5658494873046875	0		-0.29193878173828125	5.87703759765625	0		
-0.0025844759941101073	-0.0012360340356826782	0		0.5345850830078125	-2.37152587890625	0		-0.9972914428710937	0.2413666534423828	0		-0.7053697509765625	-2.464573974609375	0		1.6428165283203124	-0.486124267578125	0		3.209867919921875	-0.17722012329101564	0		4.435767578125	0.3249825439453125	0		6.004076171875	0.5568709716796875	0		-0.2748330078125	5.88566259765625	0		
0.008703651428222657	0.008454678535461425	0		0.5050242004394532	-2.353425048828125	0		-0.9130332641601563	0.2483254852294922	0		-0.694852783203125	-2.438895751953125	0		1.635947265625	-0.4942095947265625	0		3.194268310546875	-0.15617254638671876	0		4.4359501953125	0.32491464233398437	0		6.0134052734375	0.5727636108398437	0		-0.19260250854492186	5.907662109375	0		
-0.002207551956176758	-0.0016426680088043213	0		0.5442390747070313	-2.35798681640625	0		-0.9328458862304687	0.24928622436523437	0		-0.7026810913085938	-2.44804296875	0		1.6210992431640625	-0.4992200317382812	0		3.18222802734375	-0.1801641082763672	0		4.42800048828125	0.3119215087890625	0		6.000505859375	0.5658654174804687	0		-0.25783193969726564	5.88307666015625	0		
-0.002032433032989502	-0.00184627103805542	0		0.4974276733398437	-2.363725341796875	0		-0.9326780395507812	0.24905549621582032	0		-0.6345238037109375	-2.457916259765625	0		1.615212646484375	-0.5073186340332031	0		3.18842724609375	-0.17833233642578125	0		4.4280419921875	0.29884756469726564	0		6.004578125	0.5567989501953124	0		-0.2578282775878906	5.88286572265625	0		
